<svg xmlns="http://www.w3.org/2000/svg" viewBox="0 0 870 440" width="100%" role="img" aria-label="The Gemma to 0 A.D. control loop" style="max-width:870px;height:auto;display:block;margin:0 auto"><title>The Gemma to 0 A.D. control loop</title><text x="430" y="30" font-family="Excalifont, Virgil, 'Segoe Print', 'Comic Sans MS', 'Bradley Hand', cursive" font-size="20" fill="#1e1e1e" text-anchor="middle" font-weight="bold" opacity="1">One decision, start to finish</text><path d="M42,73 L238,69 L241,146 L39,150 Z" fill="#a5d8ff" opacity="0.95"/><path d="M38.7,69.8 C139.0,69.5 139.6,68.0 238.8,68.9" stroke="#1e1e1e" stroke-width="1.9" fill="none" stroke-linecap="round"/><path d="M41.3,68.7 C140.9,67.5 141.3,70.1 241.0,69.4" stroke="#1e1e1e" stroke-width="1.9" fill="none" stroke-linecap="round"/><path d="M240.1,68.8 C239.6,109.9 240.8,108.6 238.8,147.2" stroke="#1e1e1e" stroke-width="1.9" fill="none" stroke-linecap="round"/><path d="M239.3,70.2 C239.5,109.2 239.5,109.6 240.1,149.1" stroke="#1e1e1e" stroke-width="1.9" fill="none" stroke-linecap="round"/><path d="M238.7,148.5 C139.4,144.8 140.7,149.5 40.7,148.2" stroke="#1e1e1e" stroke-width="1.9" fill="none" stroke-linecap="round"/><path d="M239.9,148.5 C139.5,147.4 139.9,147.7 38.8,148.6" stroke="#1e1e1e" stroke-width="1.9" fill="none" stroke-linecap="round"/><path d="M39.1,146.9 C41.6,108.4 40.3,108.9 38.8,70.8" stroke="#1e1e1e" stroke-width="1.9" fill="none" stroke-linecap="round"/><path d="M40.9,149.0 C38.6,110.0 39.1,110.1 39.4,69.8" stroke="#1e1e1e" stroke-width="1.9" fill="none" stroke-linecap="round"/><text x="140.0" y="105.0" font-family="Excalifont, Virgil, 'Segoe Print', 'Comic Sans MS', 'Bradley Hand', cursive" font-size="14" fill="#1e1e1e" text-anchor="middle" font-weight="bold" opacity="1">0 A.D. engine</text><text x="140.0" y="123.0" font-family="Excalifont, Virgil, 'Segoe Print', 'Comic Sans MS', 'Bradley Hand', cursive" font-size="12.5" fill="#1e1e1e" text-anchor="middle" font-weight="normal" opacity="1">(Pyrogenesis, headless)</text><path d="M332,73 L538,69 L541,146 L329,150 Z" fill="#e9ecef" opacity="0.95"/><path d="M330.2,69.3 C436.1,71.1 434.2,68.8 538.6,69.8" stroke="#1e1e1e" stroke-width="1.9" fill="none" stroke-linecap="round"/><path d="M331.1,70.8 C435.2,72.6 435.3,69.5 541.0,70.8" stroke="#1e1e1e" stroke-width="1.9" fill="none" stroke-linecap="round"/><path d="M539.6,68.7 C539.9,109.4 539.6,108.1 538.6,147.0" stroke="#1e1e1e" stroke-width="1.9" fill="none" stroke-linecap="round"/><path d="M539.6,68.9 C540.3,110.0 538.8,108.6 541.0,149.4" stroke="#1e1e1e" stroke-width="1.9" fill="none" stroke-linecap="round"/><path d="M538.7,149.3 C435.0,148.7 434.3,145.6 330.1,147.0" stroke="#1e1e1e" stroke-width="1.9" fill="none" stroke-linecap="round"/><path d="M539.1,148.8 C433.7,149.2 435.5,148.7 330.1,148.8" stroke="#1e1e1e" stroke-width="1.9" fill="none" stroke-linecap="round"/><path d="M329.2,148.0 C328.9,110.4 331.5,109.7 329.6,68.7" stroke="#1e1e1e" stroke-width="1.9" fill="none" stroke-linecap="round"/><path d="M331.3,147.6 C328.6,109.5 330.6,110.4 329.2,69.2" stroke="#1e1e1e" stroke-width="1.9" fill="none" stroke-linecap="round"/><text x="435.0" y="96.0" font-family="Excalifont, Virgil, 'Segoe Print', 'Comic Sans MS', 'Bradley Hand', cursive" font-size="14" fill="#1e1e1e" text-anchor="middle" font-weight="bold" opacity="1">observation JSON</text><text x="435.0" y="114.0" font-family="Excalifont, Virgil, 'Segoe Print', 'Comic Sans MS', 'Bradley Hand', cursive" font-size="12.5" fill="#1e1e1e" text-anchor="middle" font-weight="normal" opacity="1">pop, resources, army,</text><text x="435.0" y="132.0" font-family="Excalifont, Virgil, 'Segoe Print', 'Comic Sans MS', 'Bradley Hand', cursive" font-size="12.5" fill="#1e1e1e" text-anchor="middle" font-weight="normal" opacity="1">enemy, structures</text><path d="M632,73 L828,69 L831,146 L629,150 Z" fill="#ffec99" opacity="0.95"/><path d="M628.8,70.4 C729.2,71.7 729.9,71.5 831.1,70.8" stroke="#1e1e1e" stroke-width="1.9" fill="none" stroke-linecap="round"/><path d="M629.7,71.3 C729.9,69.4 730.8,71.8 830.6,69.1" stroke="#1e1e1e" stroke-width="1.9" fill="none" stroke-linecap="round"/><path d="M829.6,70.1 C829.7,109.9 831.5,109.4 829.0,146.6" stroke="#1e1e1e" stroke-width="1.9" fill="none" stroke-linecap="round"/><path d="M829.3,69.4 C829.6,110.2 831.2,108.2 829.3,148.2" stroke="#1e1e1e" stroke-width="1.9" fill="none" stroke-linecap="round"/><path d="M829.8,149.2 C729.8,150.8 729.9,148.8 630.0,148.1" stroke="#1e1e1e" stroke-width="1.9" fill="none" stroke-linecap="round"/><path d="M830.6,148.2 C728.7,147.4 730.8,149.4 629.5,148.1" stroke="#1e1e1e" stroke-width="1.9" fill="none" stroke-linecap="round"/><path d="M630.2,148.7 C630.9,109.2 628.9,109.0 631.2,69.8" stroke="#1e1e1e" stroke-width="1.9" fill="none" stroke-linecap="round"/><path d="M630.6,149.1 C630.2,109.5 630.0,110.2 631.2,69.3" stroke="#1e1e1e" stroke-width="1.9" fill="none" stroke-linecap="round"/><text x="730.0" y="105.0" font-family="Excalifont, Virgil, 'Segoe Print', 'Comic Sans MS', 'Bradley Hand', cursive" font-size="14" fill="#1e1e1e" text-anchor="middle" font-weight="bold" opacity="1">Gemma 4 E2B</text><text x="730.0" y="123.0" font-family="Excalifont, Virgil, 'Segoe Print', 'Comic Sans MS', 'Bradley Hand', cursive" font-size="12.5" fill="#1e1e1e" text-anchor="middle" font-weight="normal" opacity="1">4-bit, greedy decode</text><path d="M632,243 L828,239 L831,316 L629,320 Z" fill="#e9ecef" opacity="0.95"/><path d="M628.8,240.5 C731.2,240.5 729.8,237.4 830.8,241.1" stroke="#1e1e1e" stroke-width="1.9" fill="none" stroke-linecap="round"/><path d="M629.7,240.0 C730.6,239.7 731.3,240.0 831.4,240.9" stroke="#1e1e1e" stroke-width="1.9" fill="none" stroke-linecap="round"/><path d="M830.2,239.8 C830.4,278.5 830.0,277.7 828.7,317.5" stroke="#1e1e1e" stroke-width="1.9" fill="none" stroke-linecap="round"/><path d="M828.7,240.8 C829.8,280.4 830.8,278.3 829.4,317.0" stroke="#1e1e1e" stroke-width="1.9" fill="none" stroke-linecap="round"/><path d="M828.9,316.8 C731.2,315.9 731.2,318.2 630.5,317.8" stroke="#1e1e1e" stroke-width="1.9" fill="none" stroke-linecap="round"/><path d="M829.9,317.5 C731.2,318.2 731.0,321.0 630.1,319.2" stroke="#1e1e1e" stroke-width="1.9" fill="none" stroke-linecap="round"/><path d="M629.5,317.5 C628.6,278.3 628.4,278.2 630.7,239.4" stroke="#1e1e1e" stroke-width="1.9" fill="none" stroke-linecap="round"/><path d="M629.1,317.9 C629.1,277.7 628.2,279.1 631.2,238.9" stroke="#1e1e1e" stroke-width="1.9" fill="none" stroke-linecap="round"/><text x="730.0" y="275.0" font-family="Excalifont, Virgil, 'Segoe Print', 'Comic Sans MS', 'Bradley Hand', cursive" font-size="14" fill="#1e1e1e" text-anchor="middle" font-weight="bold" opacity="1">{"action": ...,</text><text x="730.0" y="293.0" font-family="Excalifont, Virgil, 'Segoe Print', 'Comic Sans MS', 'Bradley Hand', cursive" font-size="12.5" fill="#1e1e1e" text-anchor="middle" font-weight="normal" opacity="1">"count": 1-8}</text><path d="M332,243 L538,239 L541,316 L329,320 Z" fill="#b2f2bb" opacity="0.95"/><path d="M329.6,240.9 C434.8,240.9 435.0,242.2 540.6,240.4" stroke="#1e1e1e" stroke-width="1.9" fill="none" stroke-linecap="round"/><path d="M328.8,241.0 C434.6,237.0 435.7,238.0 541.0,240.5" stroke="#1e1e1e" stroke-width="1.9" fill="none" stroke-linecap="round"/><path d="M541.3,240.1 C539.7,278.9 540.4,280.3 539.3,319.3" stroke="#1e1e1e" stroke-width="1.9" fill="none" stroke-linecap="round"/><path d="M538.6,239.3 C539.9,278.7 540.1,279.0 538.9,317.7" stroke="#1e1e1e" stroke-width="1.9" fill="none" stroke-linecap="round"/><path d="M540.6,319.1 C433.7,318.1 435.1,317.3 329.7,317.5" stroke="#1e1e1e" stroke-width="1.9" fill="none" stroke-linecap="round"/><path d="M540.7,318.9 C434.0,317.4 435.9,316.6 329.0,318.1" stroke="#1e1e1e" stroke-width="1.9" fill="none" stroke-linecap="round"/><path d="M329.2,316.7 C330.9,279.9 331.2,279.5 329.0,239.6" stroke="#1e1e1e" stroke-width="1.9" fill="none" stroke-linecap="round"/><path d="M330.8,318.7 C330.3,279.4 330.7,277.6 330.0,240.1" stroke="#1e1e1e" stroke-width="1.9" fill="none" stroke-linecap="round"/><text x="435.0" y="266.0" font-family="Excalifont, Virgil, 'Segoe Print', 'Comic Sans MS', 'Bradley Hand', cursive" font-size="14" fill="#1e1e1e" text-anchor="middle" font-weight="bold" opacity="1">validator</text><text x="435.0" y="284.0" font-family="Excalifont, Virgil, 'Segoe Print', 'Comic Sans MS', 'Bradley Hand', cursive" font-size="12.5" fill="#1e1e1e" text-anchor="middle" font-weight="normal" opacity="1">allowlist + legal list</text><text x="435.0" y="302.0" font-family="Excalifont, Virgil, 'Segoe Print', 'Comic Sans MS', 'Bradley Hand', cursive" font-size="12.5" fill="#1e1e1e" text-anchor="middle" font-weight="normal" opacity="1">+ cost + pop check</text><path d="M42,243 L238,239 L241,316 L39,320 Z" fill="#a5d8ff" opacity="0.95"/><path d="M40.7,241.3 C138.8,240.4 139.3,240.2 240.0,239.7" stroke="#1e1e1e" stroke-width="1.9" fill="none" stroke-linecap="round"/><path d="M40.7,239.5 C140.5,241.5 138.8,237.7 240.2,238.6" stroke="#1e1e1e" stroke-width="1.9" fill="none" stroke-linecap="round"/><path d="M239.9,238.9 C240.1,279.5 239.1,278.9 241.1,317.2" stroke="#1e1e1e" stroke-width="1.9" fill="none" stroke-linecap="round"/><path d="M239.2,241.2 C240.4,278.9 240.8,278.4 239.2,318.2" stroke="#1e1e1e" stroke-width="1.9" fill="none" stroke-linecap="round"/><path d="M239.2,319.1 C140.1,314.9 140.0,316.8 40.0,316.7" stroke="#1e1e1e" stroke-width="1.9" fill="none" stroke-linecap="round"/><path d="M238.6,318.7 C140.0,317.7 139.6,319.8 40.9,316.9" stroke="#1e1e1e" stroke-width="1.9" fill="none" stroke-linecap="round"/><path d="M39.6,317.8 C41.3,278.4 39.5,279.2 39.4,238.7" stroke="#1e1e1e" stroke-width="1.9" fill="none" stroke-linecap="round"/><path d="M39.6,319.3 C40.2,280.2 38.9,278.1 41.1,240.9" stroke="#1e1e1e" stroke-width="1.9" fill="none" stroke-linecap="round"/><text x="140.0" y="275.0" font-family="Excalifont, Virgil, 'Segoe Print', 'Comic Sans MS', 'Bradley Hand', cursive" font-size="14" fill="#1e1e1e" text-anchor="middle" font-weight="bold" opacity="1">macro adapter</text><text x="140.0" y="293.0" font-family="Excalifont, Virgil, 'Segoe Print', 'Comic Sans MS', 'Bradley Hand', cursive" font-size="12.5" fill="#1e1e1e" text-anchor="middle" font-weight="normal" opacity="1">zero_ad.actions</text><path d="M240.7,109.4 C283.7,110.0 281.2,109.3 324.4,107.7" stroke="#1e1e1e" stroke-width="1.9" fill="none" stroke-linecap="round"/><path d="M240.4,108.4 C281.5,108.5 283.2,109.2 325.2,108.7" stroke="#1e1e1e" stroke-width="1.9" fill="none" stroke-linecap="round"/><path d="M324.9,108.5 C320.7,105.6 320.8,105.7 317.0,100.4" stroke="#1e1e1e" stroke-width="1.9" fill="none" stroke-linecap="round"/><path d="M324.9,109.0 C320.6,104.7 321.8,104.9 317.3,100.8" stroke="#1e1e1e" stroke-width="1.9" fill="none" stroke-linecap="round"/><path d="M324.7,108.6 C320.9,112.4 321.4,112.6 317.3,116.9" stroke="#1e1e1e" stroke-width="1.9" fill="none" stroke-linecap="round"/><path d="M325.1,108.3 C321.7,112.3 321.6,112.9 317.3,117.6" stroke="#1e1e1e" stroke-width="1.9" fill="none" stroke-linecap="round"/><path d="M546.2,109.6 C586.0,109.1 584.0,109.5 625.4,109.7" stroke="#1e1e1e" stroke-width="1.9" fill="none" stroke-linecap="round"/><path d="M544.0,108.3 C585.1,109.0 586.2,108.7 625.4,109.6" stroke="#1e1e1e" stroke-width="1.9" fill="none" stroke-linecap="round"/><path d="M624.7,108.9 C620.6,105.1 620.8,104.3 618.1,101.2" stroke="#1e1e1e" stroke-width="1.9" fill="none" stroke-linecap="round"/><path d="M625.0,109.2 C621.2,104.7 621.5,104.4 617.3,100.7" stroke="#1e1e1e" stroke-width="1.9" fill="none" stroke-linecap="round"/><path d="M625.4,109.3 C621.8,112.4 621.1,112.6 617.4,116.6" stroke="#1e1e1e" stroke-width="1.9" fill="none" stroke-linecap="round"/><path d="M625.0,108.6 C620.9,112.6 621.6,113.6 617.0,116.9" stroke="#1e1e1e" stroke-width="1.9" fill="none" stroke-linecap="round"/><path d="M728.8,152.7 C731.0,193.7 731.9,192.7 731.1,236.1" stroke="#1e1e1e" stroke-width="1.9" fill="none" stroke-linecap="round"/><path d="M730.5,152.7 C731.0,193.5 731.8,192.7 729.6,234.5" stroke="#1e1e1e" stroke-width="1.9" fill="none" stroke-linecap="round"/><path d="M729.8,235.5 C733.3,231.0 733.5,230.8 738.4,227.3" stroke="#1e1e1e" stroke-width="1.9" fill="none" stroke-linecap="round"/><path d="M729.9,235.4 C733.9,231.8 733.8,230.6 738.4,226.8" stroke="#1e1e1e" stroke-width="1.9" fill="none" stroke-linecap="round"/><path d="M730.6,235.2 C725.4,230.8 726.6,230.9 721.7,227.7" stroke="#1e1e1e" stroke-width="1.9" fill="none" stroke-linecap="round"/><path d="M729.6,235.0 C725.7,231.6 726.2,230.5 722.7,228.1" stroke="#1e1e1e" stroke-width="1.9" fill="none" stroke-linecap="round"/><path d="M625.9,279.8 C585.8,279.1 585.6,279.1 548.3,278.5" stroke="#1e1e1e" stroke-width="1.9" fill="none" stroke-linecap="round"/><path d="M623.7,279.1 C586.1,277.3 587.2,278.2 547.5,280.3" stroke="#1e1e1e" stroke-width="1.9" fill="none" stroke-linecap="round"/><path d="M547.6,278.9 C552.4,282.4 551.8,282.9 555.7,287.2" stroke="#1e1e1e" stroke-width="1.9" fill="none" stroke-linecap="round"/><path d="M548.3,278.6 C552.2,282.5 551.5,282.8 555.2,286.6" stroke="#1e1e1e" stroke-width="1.9" fill="none" stroke-linecap="round"/><path d="M548.4,279.2 C552.3,274.8 552.5,274.6 556.3,270.5" stroke="#1e1e1e" stroke-width="1.9" fill="none" stroke-linecap="round"/><path d="M548.7,279.1 C552.2,275.6 551.5,274.5 556.2,270.8" stroke="#1e1e1e" stroke-width="1.9" fill="none" stroke-linecap="round"/><path d="M324.2,278.6 C284.9,280.2 283.9,279.2 244.0,278.2" stroke="#1e1e1e" stroke-width="1.9" fill="none" stroke-linecap="round"/><path d="M324.5,278.2 C285.3,277.9 284.5,277.8 245.8,279.1" stroke="#1e1e1e" stroke-width="1.9" fill="none" stroke-linecap="round"/><path d="M244.9,278.7 C248.3,283.1 248.2,283.2 252.3,287.6" stroke="#1e1e1e" stroke-width="1.9" fill="none" stroke-linecap="round"/><path d="M245.3,278.6 C248.9,282.9 249.4,282.6 251.9,287.5" stroke="#1e1e1e" stroke-width="1.9" fill="none" stroke-linecap="round"/><path d="M245.2,279.6 C249.2,275.5 248.3,275.0 252.0,271.2" stroke="#1e1e1e" stroke-width="1.9" fill="none" stroke-linecap="round"/><path d="M245.4,279.7 C248.8,274.7 249.4,275.0 252.1,270.5" stroke="#1e1e1e" stroke-width="1.9" fill="none" stroke-linecap="round"/><path d="M140.9,234.0 C142.1,193.7 140.4,195.3 140.8,154.2" stroke="#1e1e1e" stroke-width="1.9" fill="none" stroke-linecap="round"/><path d="M138.9,234.3 C140.8,194.1 139.2,194.7 140.6,156.1" stroke="#1e1e1e" stroke-width="1.9" fill="none" stroke-linecap="round"/><path d="M140.2,154.7 C136.1,158.1 135.4,158.8 131.9,162.7" stroke="#1e1e1e" stroke-width="1.9" fill="none" stroke-linecap="round"/><path d="M140.4,155.4 C136.2,158.7 136.2,158.4 132.0,162.1" stroke="#1e1e1e" stroke-width="1.9" fill="none" stroke-linecap="round"/><path d="M140.2,154.4 C143.4,158.7 143.9,158.1 148.3,163.0" stroke="#1e1e1e" stroke-width="1.9" fill="none" stroke-linecap="round"/><path d="M140.3,155.4 C143.4,158.6 143.4,159.5 147.6,163.2" stroke="#1e1e1e" stroke-width="1.9" fill="none" stroke-linecap="round"/><text x="285" y="100" font-family="Excalifont, Virgil, 'Segoe Print', 'Comic Sans MS', 'Bradley Hand', cursive" font-size="12.5" fill="#1e1e1e" text-anchor="middle" font-weight="normal" opacity="0.75">state</text><text x="585" y="100" font-family="Excalifont, Virgil, 'Segoe Print', 'Comic Sans MS', 'Bradley Hand', cursive" font-size="12.5" fill="#1e1e1e" text-anchor="middle" font-weight="normal" opacity="0.75">prompt</text><text x="790" y="200" font-family="Excalifont, Virgil, 'Segoe Print', 'Comic Sans MS', 'Bradley Hand', cursive" font-size="12.5" fill="#1e1e1e" text-anchor="middle" font-weight="normal" opacity="0.75">JSON</text><text x="590" y="270" font-family="Excalifont, Virgil, 'Segoe Print', 'Comic Sans MS', 'Bradley Hand', cursive" font-size="12.5" fill="#1e1e1e" text-anchor="middle" font-weight="normal" opacity="0.75">parse</text><text x="288" y="270" font-family="Excalifont, Virgil, 'Segoe Print', 'Comic Sans MS', 'Bradley Hand', cursive" font-size="12.5" fill="#1e1e1e" text-anchor="middle" font-weight="normal" opacity="0.75">commands</text><text x="196" y="200" font-family="Excalifont, Virgil, 'Segoe Print', 'Comic Sans MS', 'Bradley Hand', cursive" font-size="12.5" fill="#1e1e1e" text-anchor="middle" font-weight="normal" opacity="0.75">step()</text><path d="M302,363 L718,359 L721,420 L299,424 Z" fill="#fff4e6" opacity="0.95"/><path d="M300.7,359.0 C511.3,360.9 511.2,357.6 721.1,359.4" stroke="#1e1e1e" stroke-width="1.9" fill="none" stroke-linecap="round"/><path d="M298.7,359.1 C509.0,361.2 509.3,359.5 719.1,361.2" stroke="#1e1e1e" stroke-width="1.9" fill="none" stroke-linecap="round"/><path d="M721.0,360.2 C720.9,391.8 720.6,390.6 720.2,423.1" stroke="#1e1e1e" stroke-width="1.9" fill="none" stroke-linecap="round"/><path d="M719.6,360.7 C721.9,390.7 718.9,391.2 719.8,421.1" stroke="#1e1e1e" stroke-width="1.9" fill="none" stroke-linecap="round"/><path d="M719.5,420.6 C508.7,419.9 511.4,422.1 298.7,421.0" stroke="#1e1e1e" stroke-width="1.9" fill="none" stroke-linecap="round"/><path d="M718.6,421.6 C509.8,423.1 509.2,420.0 298.9,421.6" stroke="#1e1e1e" stroke-width="1.9" fill="none" stroke-linecap="round"/><path d="M299.3,421.0 C299.9,390.2 300.1,392.2 298.9,360.4" stroke="#1e1e1e" stroke-width="1.9" fill="none" stroke-linecap="round"/><path d="M300.4,421.8 C301.3,390.3 299.7,390.6 301.2,360.7" stroke="#1e1e1e" stroke-width="1.9" fill="none" stroke-linecap="round"/><text x="510" y="385" font-family="Excalifont, Virgil, 'Segoe Print', 'Comic Sans MS', 'Bradley Hand', cursive" font-size="13.5" fill="#1e1e1e" text-anchor="middle" font-weight="normal" opacity="1">Then the engine runs 24 turns with no orders,</text><text x="510" y="405" font-family="Excalifont, Virgil, 'Segoe Print', 'Comic Sans MS', 'Bradley Hand', cursive" font-size="13.5" fill="#1e1e1e" text-anchor="middle" font-weight="normal" opacity="1">and the next prompt carries no memory of this one.</text></svg>
